HIERARCHY
ROOT Hips
{
	OFFSET 0.000000 121.760803 0.000000
	CHANNELS 6 Xposition Yposition Zposition Xrotation Yrotation Zrotation 
	JOINT Spine
	{
		OFFSET 0.072000 7.257294 -0.789700
		CHANNELS 3 Xrotation Yrotation Zrotation
		JOINT Spine1
		{
			OFFSET 0.000000 12.508769 -0.658067
			CHANNELS 3 Xrotation Yrotation Zrotation
			JOINT Spine1_split
			{
				OFFSET 0.000000 12.508769 -0.658067
				CHANNELS 3 Xrotation Yrotation Zrotation
				JOINT Spine2
				{
					OFFSET 0.000000 12.508769 -0.658067
					CHANNELS 3 Xrotation Yrotation Zrotation
					JOINT Neck
					{
						OFFSET 0.000000 14.033295 7.520400
						CHANNELS 3 Xrotation Yrotation Zrotation
						JOINT Head
						{
							OFFSET 0.000000 8.198502 5.703100
							CHANNELS 3 Xrotation Yrotation Zrotation
							JOINT HeadTop_End
							{
								OFFSET 0.000000 17.760803 13.332701
								CHANNELS 3 Xrotation Yrotation Zrotation
								End Site
								{
									OFFSET 0.000000 0.000000 0.000000
								}
							}
						}
					}
					JOINT LeftShoulder
					{
						OFFSET 6.292450 5.785301 -0.669000
						CHANNELS 3 Xrotation Yrotation Zrotation
						JOINT LeftShoulder_split
						{
							OFFSET 6.292450 5.785301 -0.669000
							CHANNELS 3 Xrotation Yrotation Zrotation
							JOINT LeftArm
							{
								OFFSET 13.907140 -6.093903 1.965100
								CHANNELS 3 Xrotation Yrotation Zrotation
								JOINT LeftForeArm
								{
									OFFSET 34.140198 0.000000 0.000000
									CHANNELS 3 Xrotation Yrotation Zrotation
									JOINT LeftHand
									{
										OFFSET 40.960209 0.000000 0.000000
										CHANNELS 3 Xrotation Yrotation Zrotation
										JOINT LeftHandThumb1
										{
											OFFSET 10.006996 -7.170425 9.573125
											CHANNELS 3 Xrotation Yrotation Zrotation
											JOINT LeftHandThumb2
											{
												OFFSET 1.835007 -1.059448 1.059443
												CHANNELS 3 Xrotation Yrotation Zrotation
												JOINT LeftHandThumb3
												{
													OFFSET 2.112267 -1.219513 1.219518
													CHANNELS 3 Xrotation Yrotation Zrotation
													JOINT LeftHandThumb4
													{
														OFFSET 4.843811 -2.796570 2.796576
														CHANNELS 3 Xrotation Yrotation Zrotation
														End Site
														{
															OFFSET 0.000000 0.000000 0.000000
														}
													}
												}
											}
										}
										JOINT LeftHandIndex1
										{
											OFFSET 18.389847 -0.922348 4.596882
											CHANNELS 3 Xrotation Yrotation Zrotation
											JOINT LeftHandIndex2
											{
												OFFSET 4.711273 0.000000 0.000000
												CHANNELS 3 Xrotation Yrotation Zrotation
												JOINT LeftHandIndex3
												{
													OFFSET 2.886131 0.000000 0.000000
													CHANNELS 3 Xrotation Yrotation Zrotation
													JOINT LeftHandIndex4
													{
														OFFSET 6.145912 0.000000 0.000000
														CHANNELS 3 Xrotation Yrotation Zrotation
														End Site
														{
															OFFSET 0.000000 0.000000 0.000000
														}
													}
												}
											}
										}
										JOINT LeftHandMiddle1
										{
											OFFSET 18.013008 0.000000 0.000000
											CHANNELS 3 Xrotation Yrotation Zrotation
											JOINT LeftHandMiddle2
											{
												OFFSET 4.946693 0.000000 0.000000
												CHANNELS 3 Xrotation Yrotation Zrotation
												JOINT LeftHandMiddle3
												{
													OFFSET 3.342232 0.000000 0.000000
													CHANNELS 3 Xrotation Yrotation Zrotation
													JOINT LeftHandMiddle4
													{
														OFFSET 4.461754 0.000000 0.000000
														CHANNELS 3 Xrotation Yrotation Zrotation
														End Site
														{
															OFFSET 0.000000 0.000000 0.000000
														}
													}
												}
											}
										}
										JOINT LeftHandRing1
										{
											OFFSET 15.849892 -0.102921 -4.126150
											CHANNELS 3 Xrotation Yrotation Zrotation
											JOINT LeftHandRing2
											{
												OFFSET 3.527054 0.000000 0.000000
												CHANNELS 3 Xrotation Yrotation Zrotation
												JOINT LeftHandRing3
												{
													OFFSET 2.961098 0.000000 0.000000
													CHANNELS 3 Xrotation Yrotation Zrotation
													JOINT LeftHandRing4
													{
														OFFSET 4.927200 0.000000 0.000000
														CHANNELS 3 Xrotation Yrotation Zrotation
														End Site
														{
															OFFSET 0.000000 0.000000 0.000000
														}
													}
												}
											}
										}
										JOINT LeftHandPinky1
										{
											OFFSET 12.791824 -0.832031 -6.799156
											CHANNELS 3 Xrotation Yrotation Zrotation
											JOINT LeftHandPinky2
											{
												OFFSET 3.327133 0.000000 0.000000
												CHANNELS 3 Xrotation Yrotation Zrotation
												JOINT LeftHandPinky3
												{
													OFFSET 3.014900 0.000000 0.000000
													CHANNELS 3 Xrotation Yrotation Zrotation
													JOINT LeftHandPinky4
													{
														OFFSET 5.847786 0.000000 0.000000
														CHANNELS 3 Xrotation Yrotation Zrotation
														End Site
														{
															OFFSET 0.000000 0.000000 0.000000
														}
													}
												}
											}
										}
									}
								}
							}
						}
					}
					JOINT RightShoulder
					{
						OFFSET -6.292450 5.785301 -0.669000
						CHANNELS 3 Xrotation Yrotation Zrotation
						JOINT RightShoulder_split
						{
							OFFSET -6.292450 5.785301 -0.669000
							CHANNELS 3 Xrotation Yrotation Zrotation
							JOINT RightArm
							{
								OFFSET -13.907140 -6.093903 1.965100
								CHANNELS 3 Xrotation Yrotation Zrotation
								JOINT RightForeArm
								{
									OFFSET -34.140198 0.000000 0.000000
									CHANNELS 3 Xrotation Yrotation Zrotation
									JOINT RightHand
									{
										OFFSET -40.960209 0.000000 0.000000
										CHANNELS 3 Xrotation Yrotation Zrotation
										JOINT RightHandThumb1
										{
											OFFSET -10.007050 -7.170456 9.573117
											CHANNELS 3 Xrotation Yrotation Zrotation
											JOINT RightHandThumb2
											{
												OFFSET -1.835007 -1.059448 1.059443
												CHANNELS 3 Xrotation Yrotation Zrotation
												JOINT RightHandThumb3
												{
													OFFSET -2.112267 -1.219513 1.219518
													CHANNELS 3 Xrotation Yrotation Zrotation
													JOINT RightHandThumb4
													{
														OFFSET -4.843834 -2.796585 2.796590
														CHANNELS 3 Xrotation Yrotation Zrotation
														End Site
														{
															OFFSET 0.000000 0.000000 0.000000
														}
													}
												}
											}
										}
										JOINT RightHandIndex1
										{
											OFFSET -18.389870 -0.922424 4.596786
											CHANNELS 3 Xrotation Yrotation Zrotation
											JOINT RightHandIndex2
											{
												OFFSET -4.711273 0.000000 0.000000
												CHANNELS 3 Xrotation Yrotation Zrotation
												JOINT RightHandIndex3
												{
													OFFSET -2.886131 0.000000 0.000000
													CHANNELS 3 Xrotation Yrotation Zrotation
													JOINT RightHandIndex4
													{
														OFFSET -6.145920 0.000000 0.000000
														CHANNELS 3 Xrotation Yrotation Zrotation
														End Site
														{
															OFFSET 0.000000 0.000000 0.000000
														}
													}
												}
											}
										}
										JOINT RightHandMiddle1
										{
											OFFSET -18.013008 0.000000 0.000000
											CHANNELS 3 Xrotation Yrotation Zrotation
											JOINT RightHandMiddle2
											{
												OFFSET -4.946693 0.000000 0.000000
												CHANNELS 3 Xrotation Yrotation Zrotation
												JOINT RightHandMiddle3
												{
													OFFSET -3.342232 0.000000 0.000000
													CHANNELS 3 Xrotation Yrotation Zrotation
													JOINT RightHandMiddle4
													{
														OFFSET -4.461754 0.000000 0.000000
														CHANNELS 3 Xrotation Yrotation Zrotation
														End Site
														{
															OFFSET 0.000000 0.000000 0.000000
														}
													}
												}
											}
										}
										JOINT RightHandRing1
										{
											OFFSET -15.849876 -0.102936 -4.126237
											CHANNELS 3 Xrotation Yrotation Zrotation
											JOINT RightHandRing2
											{
												OFFSET -3.527054 0.000000 0.000000
												CHANNELS 3 Xrotation Yrotation Zrotation
												JOINT RightHandRing3
												{
													OFFSET -2.961098 0.000000 0.000000
													CHANNELS 3 Xrotation Yrotation Zrotation
													JOINT RightHandRing4
													{
														OFFSET -4.927200 0.000000 0.000000
														CHANNELS 3 Xrotation Yrotation Zrotation
														End Site
														{
															OFFSET 0.000000 0.000000 0.000000
														}
													}
												}
											}
										}
										JOINT RightHandPinky1
										{
											OFFSET -12.791786 -0.832077 -6.799222
											CHANNELS 3 Xrotation Yrotation Zrotation
											JOINT RightHandPinky2
											{
												OFFSET -3.327133 0.000000 0.000000
												CHANNELS 3 Xrotation Yrotation Zrotation
												JOINT RightHandPinky3
												{
													OFFSET -3.014900 0.000000 0.000000
													CHANNELS 3 Xrotation Yrotation Zrotation
													JOINT RightHandPinky4
													{
														OFFSET -5.847786 0.000000 0.000000
														CHANNELS 3 Xrotation Yrotation Zrotation
														End Site
														{
															OFFSET 0.000000 0.000000 0.000000
														}
													}
												}
											}
										}
									}
								}
							}
						}
					}
				}
			}
		}
	}
	JOINT LeftUpLeg
	{
		OFFSET 13.026900 -6.336304 -1.092800
		CHANNELS 3 Xrotation Yrotation Zrotation
		JOINT LeftLeg
		{
			OFFSET 0.524474 -46.096886 9.782700
			CHANNELS 3 Xrotation Yrotation Zrotation
			JOINT LeftFoot
			{
				OFFSET -0.524474 -53.427422 -12.948200
				CHANNELS 3 Xrotation Yrotation Zrotation
				JOINT LeftToeBase
				{
					OFFSET 0.192200 -14.009700 16.364100
					CHANNELS 3 Xrotation Yrotation Zrotation
					JOINT LeftToe_End
					{
						OFFSET -1.784700 -0.561700 9.474800
						CHANNELS 3 Xrotation Yrotation Zrotation
						End Site
						{
							OFFSET 0.000000 0.000000 0.000000
						}
					}
				}
			}
		}
	}
	JOINT RightUpLeg
	{
		OFFSET -12.883000 -6.336304 -1.092800
		CHANNELS 3 Xrotation Yrotation Zrotation
		JOINT RightLeg
		{
			OFFSET -0.524587 -46.096825 9.782800
			CHANNELS 3 Xrotation Yrotation Zrotation
			JOINT RightFoot
			{
				OFFSET 0.524587 -53.427383 -12.948300
				CHANNELS 3 Xrotation Yrotation Zrotation
				JOINT RightToeBase
				{
					OFFSET -0.192200 -14.009700 16.364100
					CHANNELS 3 Xrotation Yrotation Zrotation
					JOINT RightToe_End
					{
						OFFSET 1.784700 -0.561700 9.474800
						CHANNELS 3 Xrotation Yrotation Zrotation
						End Site
						{
							OFFSET 0.000000 0.000000 0.000000
						}
					}
				}
			}
		}
	}
}
MOTION
Frames: 4
Frame Time: 0.016667
1.887394 153.642365 384.605530 6.674189 -36.894800 19.810180 36.587346 4.989486 -28.376024 10.113564 4.487074 -5.651610 0.000000 0.000000 0.000000 17.344338 -0.254999 0.868252 -12.219175 18.249676 -13.297137 -37.838657 -7.524092 1.760361 -0.000000 0.000001 0.000000 3.460651 -8.918318 -0.904752 0.000000 0.000000 0.000000 -83.626814 1.219633 -12.071366 -339.578318 -61.813103 -343.756481 -7.849526 9.865815 25.085407 17.551590 -5.699210 -12.932269 10.850550 26.127721 8.644743 20.927027 51.115845 0.218659 -0.000000 -0.000001 0.000000 13.980892 1.201552 -55.004371 0.370809 1.161710 -65.441887 1.983969 2.148008 -57.665102 -0.000001 -0.000001 0.000002 7.504738 1.174516 -63.778517 1.807882 1.475654 -64.568019 0.130341 -0.912284 -43.272489 0.000000 -0.000005 0.000002 8.574306 2.179153 -75.148979 -0.207613 1.009272 -57.855056 0.443047 1.742142 -53.581297 0.000000 -0.000003 0.000000 10.030090 13.637108 -84.750230 0.877114 0.062342 -64.595455 1.141231 1.253134 -55.016327 -0.000001 0.000005 -0.000002 7.814325 26.927345 -8.074465 0.000000 0.000000 0.000000 -63.242702 -8.464373 33.803638 -75.905450 19.956829 56.360228 103.847767 -11.344608 -4.184693 -0.360664 0.058163 -0.543033 4.001297 -8.596762 -1.236486 3.857203 -10.852862 -1.955292 -0.000001 -0.000000 -0.000000 1.178593 -0.282682 1.711514 -0.146680 -0.226841 7.547510 -0.127807 -0.395040 -2.757531 0.000000 0.000001 -0.000001 3.352587 -1.937790 -0.812892 0.311555 -0.271388 28.365036 0.039964 -0.084907 -11.190824 -0.000000 0.000000 0.000003 2.261830 -7.957693 2.165567 0.288140 -0.079104 26.161663 0.173932 -0.165781 10.463107 0.000003 0.000001 0.000002 1.961596 -6.393499 2.504510 0.531429 0.722189 34.300585 0.427994 -0.108350 10.262780 -0.000001 0.000000 -0.000000 -94.159028 -24.469125 19.414125 101.995283 13.618486 6.265520 -4.558728 0.625515 4.519543 1.256081 -2.508909 -0.302545 -0.000002 0.000001 0.000000 -97.332661 -27.577638 0.634885 107.957656 16.655239 3.374312 12.647784 4.846293 8.213111 2.169861 0.173848 -1.568196 -0.000000 -0.000000 0.000000 
1.938923 153.440430 390.755890 8.152879 -36.582599 20.078367 36.287644 5.315395 -27.661873 10.417177 4.343068 -5.637417 0.000000 0.000000 0.000000 17.590063 -0.300815 0.846440 -11.986769 17.712584 -13.403264 -38.648697 -7.453907 1.396193 0.000002 -0.000000 0.000000 3.732756 -8.938842 -0.897977 0.000000 0.000000 0.000000 -82.664051 -0.098875 -10.383356 -346.709801 -62.155083 -350.113912 -8.715362 8.791279 25.759005 17.551590 -5.699215 -12.932272 10.850550 26.127724 8.644744 20.927027 51.115845 0.218660 -0.000001 -0.000001 -0.000002 13.980894 1.201548 -55.004367 0.370807 1.161713 -65.441887 1.983957 2.148007 -57.665095 -0.000002 0.000003 -0.000001 7.504740 1.174512 -63.778517 1.807881 1.475654 -64.568019 0.130343 -0.912281 -43.272489 -0.000002 0.000005 0.000000 8.574308 2.179152 -75.148979 -0.207610 1.009271 -57.855056 0.443044 1.742138 -53.581301 0.000000 -0.000000 0.000001 10.030089 13.637100 -84.750230 0.877114 0.062341 -64.595455 1.141228 1.253137 -55.016323 -0.000000 0.000001 -0.000001 7.302800 26.569089 -6.881552 0.000000 0.000000 0.000000 -60.118205 -8.940511 34.394107 -76.312734 20.173462 58.156622 101.670255 -13.677686 -5.595372 -0.360540 0.058143 -0.542843 4.001298 -8.596735 -1.236486 3.857316 -10.852882 -1.955044 0.000000 -0.000002 0.000000 1.178589 -0.282250 0.826522 -0.148744 -0.225314 6.662549 -0.127662 -0.393690 -3.642490 0.000001 -0.000004 -0.000002 3.352644 -1.937394 -1.697915 0.311849 -0.272004 27.480090 0.039183 -0.085499 -12.075800 0.000002 -0.000002 0.000001 2.261796 -7.957272 1.280573 0.287413 -0.081020 25.276676 0.173464 -0.167217 9.578142 -0.000002 0.000003 -0.000000 1.961566 -6.393088 1.619551 0.531209 0.722494 33.415580 0.426619 -0.108120 9.377839 -0.000003 -0.000001 -0.000000 -92.347074 -22.700004 20.440033 99.363837 12.543330 6.315306 -5.872599 0.836432 2.875730 1.268330 -2.454959 -0.300026 -0.000000 0.000000 0.000001 -97.198680 -27.005342 0.945259 100.003136 18.671012 6.278581 7.917605 4.151911 9.364839 1.921295 0.153603 -1.387446 -0.000001 0.000000 -0.000001 
1.883854 152.969208 396.779846 9.574353 -36.227883 20.265482 35.791291 5.747036 -26.923371 10.724723 4.198464 -5.583330 0.000000 0.000000 0.000000 17.800921 -0.342640 0.829320 -11.305827 16.957799 -13.348743 -39.456111 -7.132158 0.943234 0.000002 0.000000 -0.000000 4.015685 -8.916288 -0.887797 0.000000 0.000000 0.000000 -82.276752 -1.094245 -8.977282 -352.924863 -62.243610 -355.786057 -9.353967 7.465115 26.072475 17.551590 -5.699214 -12.932269 10.850547 26.127722 8.644744 20.927025 51.115838 0.218664 -0.000000 -0.000001 0.000001 13.980892 1.201552 -55.004374 0.370813 1.161711 -65.441887 1.983961 2.148008 -57.665102 -0.000001 0.000001 -0.000001 7.504740 1.174510 -63.778517 1.807886 1.475657 -64.568019 0.130341 -0.912281 -43.272493 -0.000001 -0.000000 0.000001 8.574306 2.179150 -75.148979 -0.207613 1.009269 -57.855056 0.443048 1.742142 -53.581301 0.000000 0.000003 -0.000001 10.030093 13.637106 -84.750230 0.877119 0.062341 -64.595462 1.141227 1.253135 -55.016330 -0.000001 -0.000001 -0.000002 6.746342 26.067564 -5.641316 0.000000 0.000000 0.000000 -56.516489 -9.132694 35.083912 -76.680635 20.592590 59.887037 98.889009 -15.813097 -7.286362 -0.360431 0.058162 -0.542661 4.001295 -8.596755 -1.236501 3.857419 -10.852891 -1.954831 -0.000001 0.000001 -0.000002 1.177313 -0.281993 0.225305 -0.150310 -0.224061 6.061336 -0.127537 -0.392708 -4.243668 -0.000001 -0.000004 -0.000002 3.352820 -1.937112 -2.299102 0.310514 -0.273203 26.878872 0.038623 -0.085995 -12.677034 -0.000001 0.000000 0.000002 2.261789 -7.956983 0.679375 0.286936 -0.082343 24.675491 0.173207 -0.168269 8.976925 0.000003 0.000001 0.000003 1.961560 -6.392800 1.018344 0.532386 0.723601 32.814421 0.425734 -0.107904 8.776649 -0.000002 0.000001 0.000000 -90.235371 -21.258537 20.655972 95.946727 12.608983 6.779046 -6.569900 1.112639 1.195835 1.278421 -2.397625 -0.303814 0.000000 -0.000001 -0.000001 -95.138497 -24.522321 0.676306 89.756260 20.477870 10.692026 4.855720 3.220875 10.841744 1.660037 0.132349 -1.199213 -0.000001 0.000000 -0.000002 
1.816135 152.227966 402.694244 10.910868 -35.839686 20.398963 35.111790 6.249663 -26.185125 11.018731 4.045009 -5.488549 0.000000 0.000000 0.000000 17.963792 -0.390537 0.823576 -10.228573 16.066925 -13.225076 -40.188908 -6.646901 0.502567 -0.000001 -0.000000 0.000000 4.292264 -8.864045 -0.877263 0.000000 0.000000 0.000000 -82.115307 -1.901187 -7.653575 -358.213014 -62.124436 -360.712208 -10.044892 6.053052 26.102958 17.551590 -5.699218 -12.932270 10.850550 26.127726 8.644745 20.927023 51.115841 0.218663 0.000001 0.000000 -0.000002 13.980896 1.201550 -55.004367 0.370807 1.161708 -65.441880 1.983959 2.148006 -57.665102 -0.000001 0.000001 -0.000003 7.504740 1.174510 -63.778517 1.807885 1.475657 -64.568012 0.130341 -0.912281 -43.272486 0.000000 -0.000000 -0.000003 8.574307 2.179150 -75.148972 -0.207612 1.009272 -57.855056 0.443045 1.742145 -53.581297 0.000003 0.000001 -0.000001 10.030092 13.637105 -84.750230 0.877117 0.062342 -64.595455 1.141226 1.253136 -55.016327 0.000001 0.000004 -0.000002 6.167936 25.450314 -4.367981 0.000000 0.000000 0.000000 -52.538283 -9.038837 35.874384 -76.979135 21.195494 61.458978 95.621508 -17.694157 -9.145839 -0.360328 0.058177 -0.542505 4.001291 -8.596773 -1.236519 3.857512 -10.852891 -1.954648 0.000002 -0.000000 0.000001 1.177752 -0.281645 -0.050757 -0.149892 -0.223214 5.785284 -0.128242 -0.392167 -4.519782 0.000002 0.000002 -0.000003 3.353001 -1.936993 -2.575180 0.309735 -0.272596 26.602832 0.039255 -0.086785 -12.953111 0.000001 0.000000 0.000002 2.262875 -7.956881 0.403460 0.287545 -0.082926 24.399403 0.173127 -0.168780 8.700844 0.000003 -0.000000 -0.000001 1.961582 -6.392685 0.742258 0.533001 0.724124 32.538277 0.425509 -0.108586 8.500534 0.000003 0.000000 0.000001 -88.015641 -19.783824 20.825979 91.934066 13.097565 7.447950 -7.414920 1.346659 -0.213833 1.286330 -2.336825 -0.314060 -0.000001 0.000001 -0.000000 -91.633483 -19.979594 0.995804 78.674497 19.942943 15.730154 4.544815 2.154347 12.466666 1.393576 0.110566 -1.006179 0.000001 -0.000002 0.000001 
